# Blender 4.2.1 LTS
# www.blender.org
mtllib balistPistolet.mtl
o Cylinder
v -0.466292 0.600000 -0.474384
v 0.304433 0.600000 -0.404433
v -0.466292 0.507452 -0.465269
v 0.304433 0.521099 -0.396662
v -0.466292 0.418461 -0.438274
v 0.304433 0.445230 -0.373647
v -0.466292 0.336446 -0.394436
v 0.304433 0.375309 -0.336274
v -0.466292 0.264560 -0.335440
v 0.304433 0.314023 -0.285977
v -0.466292 0.205564 -0.263554
v 0.304433 0.263726 -0.224691
v -0.466292 0.161726 -0.181539
v 0.304433 0.226353 -0.154770
v -0.466292 0.134731 -0.092548
v 0.304433 0.203338 -0.078901
v -0.466292 0.125616 0.000000
v 0.304433 0.195567 0.000000
v -0.466292 0.134731 0.092548
v 0.304433 0.203338 0.078901
v -0.466292 0.161726 0.181539
v 0.304433 0.226353 0.154770
v -0.466292 0.205564 0.263554
v 0.304433 0.263726 0.224691
v -0.466292 0.264560 0.335440
v 0.304433 0.314023 0.285977
v -0.466292 0.336446 0.394436
v 0.304433 0.375309 0.336274
v -0.466292 0.418461 0.438274
v 0.304433 0.445230 0.373647
v -0.466292 0.507452 0.465269
v 0.304433 0.521099 0.396662
v -0.466292 0.600000 0.474384
v 0.304433 0.600000 0.404433
v -0.466292 0.692548 0.465269
v 0.304433 0.678901 0.396662
v -0.466292 0.781539 0.438274
v 0.304433 0.754770 0.373647
v -0.466292 0.863554 0.394436
v 0.304433 0.824691 0.336274
v -0.466292 0.935440 0.335440
v 0.304433 0.885977 0.285977
v -0.466292 0.994436 0.263554
v 0.304433 0.936274 0.224691
v -0.466292 1.038274 0.181539
v 0.304433 0.973647 0.154770
v -0.466292 1.065269 0.092548
v 0.304433 0.996662 0.078901
v -0.466292 1.074384 0.000000
v 0.304433 1.004433 0.000000
v -0.466292 1.065269 -0.092548
v 0.304433 0.996662 -0.078901
v -0.466292 1.038274 -0.181539
v 0.304433 0.973647 -0.154770
v -0.466292 0.994436 -0.263554
v 0.304433 0.936274 -0.224691
v -0.466292 0.935440 -0.335440
v 0.304433 0.885977 -0.285977
v -0.466292 0.863554 -0.394436
v 0.304433 0.824691 -0.336274
v -0.466292 0.781539 -0.438274
v 0.304433 0.754770 -0.373647
v -0.466292 0.692548 -0.465269
v 0.304433 0.678901 -0.396662
v 2.404433 0.458240 -0.308729
v 2.404433 0.398010 -0.302797
v 2.404433 0.340094 -0.285228
v 2.404433 0.286719 -0.256699
v 2.404433 0.239935 -0.218304
v 2.404433 0.201541 -0.171521
v 2.404433 0.173011 -0.118146
v 2.404433 0.155443 -0.060230
v 2.404433 0.149511 0.000000
v 2.404433 0.155443 0.060230
v 2.404433 0.173011 0.118146
v 2.404433 0.201541 0.171521
v 2.404433 0.239935 0.218304
v 2.404433 0.286719 0.256699
v 2.404433 0.340094 0.285228
v 2.404433 0.398010 0.302797
v 2.404433 0.458240 0.308729
v 2.404433 0.518470 0.302797
v 2.404433 0.576385 0.285228
v 2.404433 0.629760 0.256699
v 2.404433 0.676544 0.218304
v 2.404433 0.714939 0.171521
v 2.404433 0.743468 0.118146
v 2.404433 0.761037 0.060230
v 2.404433 0.766969 0.000000
v 2.404433 0.761037 -0.060230
v 2.404433 0.743468 -0.118146
v 2.404433 0.714939 -0.171521
v 2.404433 0.676544 -0.218304
v 2.404433 0.629760 -0.256699
v 2.404433 0.576385 -0.285228
v 2.404433 0.518470 -0.302797
v -0.983606 0.600000 -0.474384
v -0.983606 0.507452 -0.465269
v -0.983606 0.418461 -0.438274
v -0.983606 0.336446 -0.394436
v -0.983606 0.264560 -0.335440
v -0.983606 0.205564 -0.263554
v -0.983606 0.161726 -0.181539
v -0.983606 0.134731 -0.092548
v -0.983606 0.125616 0.000000
v -0.983606 0.134731 0.092548
v -0.983606 0.161726 0.181539
v -0.983606 0.205564 0.263554
v -0.983606 0.264560 0.335440
v -0.983606 0.336446 0.394436
v -0.983606 0.418461 0.438274
v -0.983606 0.507452 0.465269
v -0.983606 0.600000 0.474384
v -0.983606 0.692548 0.465269
v -0.983606 0.781539 0.438274
v -0.983606 0.863554 0.394436
v -0.983606 0.935440 0.335440
v -0.983606 0.994436 0.263554
v -0.983606 1.038274 0.181539
v -0.983606 1.065269 0.092548
v -0.983606 1.074384 0.000000
v -0.983606 1.065269 -0.092548
v -0.983606 1.038274 -0.181539
v -0.983606 0.994436 -0.263554
v -0.983606 0.935440 -0.335440
v -0.983606 0.863554 -0.394436
v -0.983606 0.781539 -0.438274
v -0.983606 0.692548 -0.465269
v -1.024221 0.600000 -0.404433
v -1.024221 0.521099 -0.396662
v -1.024221 0.445230 -0.373647
v -1.024221 0.375309 -0.336274
v -1.024221 0.314023 -0.285977
v -1.024221 0.263726 -0.224691
v -1.024221 0.226353 -0.154770
v -1.024221 0.203338 -0.078901
v -1.024221 0.195567 0.000000
v -1.024221 0.203338 0.078901
v -1.024221 0.226353 0.154770
v -1.024221 0.263726 0.224691
v -1.024221 0.314023 0.285977
v -1.024221 0.375309 0.336274
v -1.024221 0.445230 0.373647
v -1.024221 0.521099 0.396662
v -1.024221 0.600000 0.404433
v -1.024221 0.678901 0.396662
v -1.024221 0.754770 0.373647
v -1.024221 0.824691 0.336274
v -1.024221 0.885977 0.285977
v -1.024221 0.936274 0.224691
v -1.024221 0.973647 0.154770
v -1.024221 0.996662 0.078901
v -1.024221 1.004433 0.000000
v -1.024221 0.996662 -0.078901
v -1.024221 0.973647 -0.154770
v -1.024221 0.936274 -0.224691
v -1.024221 0.885977 -0.285977
v -1.024221 0.824691 -0.336274
v -1.024221 0.754770 -0.373647
v -1.024221 0.678901 -0.396662
v -1.890535 0.600000 -0.404433
v -1.890535 0.521099 -0.396662
v -1.890535 0.445230 -0.373647
v -1.890535 0.375309 -0.336274
v -1.890535 0.314023 -0.285977
v -1.890535 0.263726 -0.224691
v -1.890535 0.226353 -0.154770
v -1.890535 0.203338 -0.078901
v -1.890535 0.195567 0.000000
v -1.890535 0.203338 0.078901
v -1.890535 0.226353 0.154770
v -1.890535 0.263726 0.224691
v -1.890535 0.314023 0.285977
v -1.890535 0.375309 0.336274
v -1.890535 0.445230 0.373647
v -1.890535 0.521099 0.396662
v -1.890535 0.600000 0.404433
v -1.890535 0.678901 0.396662
v -1.890535 0.754770 0.373647
v -1.890535 0.824691 0.336274
v -1.890535 0.885977 0.285977
v -1.890535 0.936273 0.224691
v -1.890535 0.973647 0.154770
v -1.890535 0.996662 0.078901
v -1.890535 1.004433 0.000000
v -1.890535 0.996662 -0.078901
v -1.890535 0.973647 -0.154770
v -1.890535 0.936273 -0.224691
v -1.890535 0.885977 -0.285977
v -1.890535 0.824691 -0.336274
v -1.890535 0.754770 -0.373647
v -1.890535 0.678901 -0.396662
v -0.448922 0.600000 -0.404433
v -0.448922 0.521099 -0.396662
v -0.448922 0.445230 -0.373647
v -0.448922 0.375309 -0.336274
v -0.448922 0.314023 -0.285977
v -0.448922 0.263726 -0.224691
v -0.448922 0.226353 -0.154770
v -0.448922 0.203338 -0.078901
v -0.448922 0.195567 0.000000
v -0.448922 0.203338 0.078901
v -0.448922 0.226353 0.154770
v -0.448922 0.263726 0.224691
v -0.448922 0.314023 0.285977
v -0.448922 0.375309 0.336274
v -0.448922 0.445230 0.373647
v -0.448922 0.521099 0.396662
v -0.448922 0.600000 0.404433
v -0.448922 0.678901 0.396662
v -0.448922 0.754770 0.373647
v -0.448922 0.824691 0.336274
v -0.448922 0.885977 0.285977
v -0.448922 0.936274 0.224691
v -0.448922 0.973647 0.154770
v -0.448922 0.996662 0.078901
v -0.448922 1.004433 0.000000
v -0.448922 0.996662 -0.078901
v -0.448922 0.973647 -0.154770
v -0.448922 0.936274 -0.224691
v -0.448922 0.885977 -0.285977
v -0.448922 0.824691 -0.336274
v -0.448922 0.754770 -0.373647
v -0.448922 0.678901 -0.396662
v 2.404433 0.379339 -0.396662
v 2.404433 0.458240 -0.404433
v 2.404433 0.303470 -0.373647
v 2.404433 0.233549 -0.336274
v 2.404433 0.172263 -0.285977
v 2.404433 0.121966 -0.224691
v 2.404433 0.084593 -0.154770
v 2.404433 0.061578 -0.078901
v 2.404433 0.053807 0.000000
v 2.404433 0.061578 0.078901
v 2.404433 0.084593 0.154770
v 2.404433 0.121966 0.224691
v 2.404433 0.172263 0.285977
v 2.404433 0.233549 0.336274
v 2.404433 0.303470 0.373647
v 2.404433 0.379339 0.396662
v 2.404433 0.458240 0.404433
v 2.404433 0.537141 0.396662
v 2.404433 0.613010 0.373647
v 2.404433 0.682931 0.336274
v 2.404433 0.744217 0.285977
v 2.404433 0.794513 0.224691
v 2.404433 0.831887 0.154770
v 2.404433 0.854901 0.078901
v 2.404433 0.862673 0.000000
v 2.404433 0.854901 -0.078901
v 2.404433 0.831887 -0.154770
v 2.404433 0.794513 -0.224691
v 2.404433 0.744217 -0.285977
v 2.404433 0.682931 -0.336274
v 2.404433 0.613010 -0.373647
v 2.404433 0.537141 -0.396662
v -0.507416 0.458241 -0.308729
v -0.507416 0.398011 -0.302797
v -0.507416 0.340095 -0.285228
v -0.507416 0.286720 -0.256699
v -0.507416 0.239936 -0.218304
v -0.507416 0.201542 -0.171521
v -0.507416 0.173012 -0.118146
v -0.507416 0.155444 -0.060230
v -0.507416 0.149512 0.000000
v -0.507416 0.155444 0.060230
v -0.507416 0.173012 0.118146
v -0.507416 0.201542 0.171521
v -0.507416 0.239936 0.218304
v -0.507416 0.286720 0.256699
v -0.507416 0.340095 0.285228
v -0.507416 0.398011 0.302797
v -0.507416 0.458241 0.308729
v -0.507416 0.518471 0.302797
v -0.507416 0.576386 0.285228
v -0.507416 0.629761 0.256699
v -0.507416 0.676545 0.218304
v -0.507416 0.714940 0.171521
v -0.507416 0.743469 0.118146
v -0.507416 0.761038 0.060230
v -0.507416 0.766970 0.000000
v -0.507416 0.761038 -0.060230
v -0.507416 0.743469 -0.118146
v -0.507416 0.714940 -0.171521
v -0.507416 0.676545 -0.218304
v -0.507416 0.629761 -0.256699
v -0.507416 0.576386 -0.285228
v -0.507416 0.518471 -0.302797
vn -0.0000 -0.0980 -0.9952
vn -0.0000 -0.2903 -0.9569
vn -0.0000 -0.4714 -0.8819
vn -0.0000 -0.6344 -0.7730
vn -0.0000 -0.7730 -0.6344
vn -0.0000 -0.8819 -0.4714
vn -0.0000 -0.9569 -0.2903
vn -0.0000 -0.9952 -0.0980
vn -0.0000 -0.9952 0.0980
vn -0.0000 -0.9569 0.2903
vn -0.0000 -0.8819 0.4714
vn -0.0000 -0.7730 0.6344
vn -0.0000 -0.6344 0.7730
vn -0.0000 -0.4714 0.8819
vn -0.0000 -0.2903 0.9569
vn -0.0000 -0.0980 0.9952
vn -0.0000 0.0980 0.9952
vn -0.0000 0.2903 0.9569
vn -0.0000 0.4714 0.8819
vn -0.0000 0.6344 0.7730
vn -0.0000 0.7730 0.6344
vn -0.0000 0.8819 0.4714
vn -0.0000 0.9569 0.2903
vn -0.0000 0.9952 0.0980
vn -0.0000 0.9952 -0.0980
vn -0.0000 0.9569 -0.2903
vn -0.0000 0.8819 -0.4714
vn -0.0000 0.7730 -0.6344
vn -0.0000 0.6344 -0.7730
vn -0.0000 0.4714 -0.8819
vn -0.0594 -0.8804 -0.4706
vn -0.0000 0.2903 -0.9569
vn -0.0000 0.0980 -0.9952
vn -0.0196 -0.2902 0.9568
vn 0.0670 0.9929 0.0978
vn -0.0196 -0.2902 -0.9568
vn -0.0594 -0.8804 0.4706
vn 0.0428 0.6338 0.7723
vn 0.0428 0.6338 -0.7723
vn -0.0645 -0.9549 -0.2897
vn -0.0066 -0.0980 0.9952
vn 0.0670 0.9929 -0.0978
vn -0.0318 -0.4712 -0.8815
vn -0.0521 -0.7720 0.6335
vn 0.0521 0.7720 0.6335
vn 0.0318 0.4712 -0.8815
vn -0.0670 -0.9929 -0.0978
vn 0.0066 0.0980 0.9952
vn 0.0645 0.9549 -0.2897
vn -0.0428 -0.6338 -0.7723
vn -0.0428 -0.6338 0.7723
vn 0.0594 0.8804 0.4706
vn 0.0196 0.2902 -0.9568
vn -0.0670 -0.9929 0.0978
vn 0.0196 0.2902 0.9568
vn 0.0594 0.8804 -0.4706
vn -0.0521 -0.7720 -0.6335
vn -0.0318 -0.4712 0.8815
vn 0.0645 0.9549 0.2897
vn -0.0066 -0.0980 -0.9952
vn 0.0066 0.0980 -0.9952
vn -0.0645 -0.9549 0.2897
vn 0.0318 0.4712 0.8815
vn 0.0521 0.7720 -0.6335
vn -0.8637 0.0494 -0.5015
vn -0.8637 0.2375 0.4444
vn -0.8637 -0.4444 -0.2376
vn -0.8637 0.3197 0.3895
vn -0.8637 -0.4822 -0.1463
vn -0.8637 0.3895 0.3197
vn -0.8637 -0.5015 -0.0494
vn -0.8637 0.4444 0.2376
vn -0.8637 -0.5015 0.0494
vn -0.8637 0.4822 0.1463
vn -0.8637 -0.4822 0.1463
vn -0.8637 0.5015 0.0494
vn -0.8637 -0.4444 0.2376
vn -0.8637 0.5015 -0.0494
vn -0.8637 -0.3895 0.3197
vn -0.8637 0.4822 -0.1463
vn -0.8637 -0.3197 0.3895
vn -0.8637 0.4444 -0.2376
vn -0.8637 -0.2376 0.4444
vn -0.8637 -0.0494 -0.5015
vn -0.8637 0.3895 -0.3197
vn -0.8637 -0.1463 0.4822
vn -0.8637 -0.1463 -0.4822
vn -0.8637 0.3197 -0.3895
vn -0.8637 -0.0494 0.5015
vn -0.8637 -0.2375 -0.4444
vn -0.8637 0.2376 -0.4444
vn -0.8637 0.0494 0.5015
vn -0.8637 -0.3197 -0.3895
vn -0.8637 0.1463 -0.4822
vn -0.8637 0.1463 0.4822
vn -0.8637 -0.3895 -0.3197
vn -1.0000 -0.0000 -0.0000
vn 0.9703 0.0237 -0.2409
vn 0.9703 0.0703 -0.2317
vn 0.9703 0.1141 -0.2135
vn 0.9703 0.1536 -0.1871
vn 0.9703 0.1871 -0.1536
vn 0.9703 0.2135 -0.1141
vn 0.9703 0.2317 -0.0703
vn 0.9703 0.2409 -0.0237
vn 0.9703 0.2409 0.0237
vn 0.9703 0.2317 0.0703
vn 0.9703 0.2135 0.1141
vn 0.9703 0.1871 0.1536
vn 0.9703 0.1536 0.1871
vn 0.9703 0.1141 0.2135
vn 0.9703 0.0703 0.2317
vn 0.9703 0.0237 0.2409
vn 0.9703 -0.0237 0.2409
vn 0.9703 -0.0703 0.2317
vn 0.9703 -0.1141 0.2135
vn 0.9703 -0.1536 0.1871
vn 0.9703 -0.1871 0.1536
vn 0.9703 -0.2135 0.1141
vn 0.9703 -0.2317 0.0703
vn 0.9703 -0.2409 0.0237
vn 0.9703 -0.2409 -0.0237
vn 0.9703 -0.2317 -0.0703
vn 0.9703 -0.2135 -0.1141
vn 0.9703 -0.1871 -0.1536
vn 0.9703 -0.1536 -0.1871
vn 0.9703 -0.1141 -0.2135
vn 0.9703 -0.0703 -0.2317
vn 0.9703 -0.0237 -0.2409
vn 1.0000 -0.0000 -0.0000
vt 1.000000 0.534314
vt 1.000000 1.000000
vt 0.968750 1.000000
vt 0.968750 0.534314
vt 0.937500 1.000000
vt 0.937500 0.534314
vt 0.906250 1.000000
vt 0.906250 0.534314
vt 0.875000 1.000000
vt 0.875000 0.534314
vt 0.843750 1.000000
vt 0.843750 0.534314
vt 0.812500 1.000000
vt 0.812500 0.534314
vt 0.781250 1.000000
vt 0.781250 0.534314
vt 0.750000 1.000000
vt 0.750000 0.534314
vt 0.718750 1.000000
vt 0.718750 0.534314
vt 0.687500 1.000000
vt 0.687500 0.534314
vt 0.656250 1.000000
vt 0.656250 0.534314
vt 0.625000 1.000000
vt 0.625000 0.534314
vt 0.593750 1.000000
vt 0.593750 0.534314
vt 0.562500 1.000000
vt 0.562500 0.534314
vt 0.531250 1.000000
vt 0.531250 0.534314
vt 0.500000 1.000000
vt 0.500000 0.534314
vt 0.468750 1.000000
vt 0.468750 0.534314
vt 0.437500 1.000000
vt 0.437500 0.534314
vt 0.406250 1.000000
vt 0.406250 0.534314
vt 0.375000 1.000000
vt 0.375000 0.534314
vt 0.343750 1.000000
vt 0.343750 0.534314
vt 0.312500 1.000000
vt 0.312500 0.534314
vt 0.281250 1.000000
vt 0.281250 0.534314
vt 0.250000 1.000000
vt 0.250000 0.534314
vt 0.218750 1.000000
vt 0.218750 0.534314
vt 0.187500 1.000000
vt 0.187500 0.534314
vt 0.156250 1.000000
vt 0.156250 0.534314
vt 0.125000 1.000000
vt 0.125000 0.534314
vt 0.093750 1.000000
vt 0.093750 0.534314
vt 0.062500 1.000000
vt 0.062500 0.534314
vt 0.031250 1.000000
vt 0.031250 0.534314
vt 0.000000 1.000000
vt 0.000000 0.534314
vt 0.968750 0.500000
vt 0.937500 0.500000
vt 0.379547 0.120453
vt 0.402331 0.148216
vt 0.031250 0.500000
vt 0.000000 0.500000
vt 0.687500 0.500000
vt 0.656250 0.500000
vt 0.406250 0.500000
vt 0.375000 0.500000
vt 0.125000 0.500000
vt 0.093750 0.500000
vt 0.812500 0.500000
vt 0.781250 0.500000
vt 0.531250 0.500000
vt 0.500000 0.500000
vt 0.250000 0.500000
vt 0.218750 0.500000
vt 0.906250 0.500000
vt 0.625000 0.500000
vt 0.343750 0.500000
vt 0.062500 0.500000
vt 0.750000 0.500000
vt 0.468750 0.500000
vt 0.187500 0.500000
vt 0.875000 0.500000
vt 0.593750 0.500000
vt 0.312500 0.500000
vt 0.718750 0.500000
vt 0.437500 0.500000
vt 0.156250 0.500000
vt 0.843750 0.500000
vt 0.562500 0.500000
vt 0.281250 0.500000
vt 1.000000 0.500000
vt 0.750000 0.490000
vt 0.796822 0.485388
vt 0.841844 0.471731
vt 0.883337 0.449553
vt 0.919706 0.419706
vt 0.949553 0.383337
vt 0.971731 0.341844
vt 0.985388 0.296822
vt 0.990000 0.250000
vt 0.985388 0.203178
vt 0.971731 0.158156
vt 0.949553 0.116663
vt 0.919706 0.080294
vt 0.883337 0.050447
vt 0.841844 0.028269
vt 0.796822 0.014612
vt 0.750000 0.010000
vt 0.703178 0.014612
vt 0.658156 0.028269
vt 0.616663 0.050447
vt 0.580294 0.080294
vt 0.550447 0.116663
vt 0.528269 0.158156
vt 0.514612 0.203178
vt 0.510000 0.250000
vt 0.514612 0.296822
vt 0.528269 0.341844
vt 0.550447 0.383337
vt 0.580294 0.419706
vt 0.616663 0.449553
vt 0.658156 0.471731
vt 0.703178 0.485388
vt 0.250000 0.433207
vt 0.285742 0.429687
vt 0.296822 0.485388
vt 0.250000 0.490000
vt 0.320110 0.419261
vt 0.341844 0.471731
vt 0.351784 0.402331
vt 0.383337 0.449553
vt 0.379547 0.379547
vt 0.419706 0.419706
vt 0.402331 0.351784
vt 0.449553 0.383337
vt 0.419261 0.320110
vt 0.471731 0.341844
vt 0.429687 0.285742
vt 0.485388 0.296822
vt 0.433207 0.250000
vt 0.490000 0.250000
vt 0.429687 0.214258
vt 0.485388 0.203178
vt 0.419261 0.179890
vt 0.471731 0.158156
vt 0.449553 0.116663
vt 0.419706 0.080294
vt 0.351784 0.097669
vt 0.383337 0.050447
vt 0.320110 0.080739
vt 0.341844 0.028269
vt 0.285742 0.070313
vt 0.296822 0.014612
vt 0.250000 0.066793
vt 0.250000 0.010000
vt 0.214258 0.070313
vt 0.203178 0.014612
vt 0.179890 0.080739
vt 0.158156 0.028269
vt 0.148216 0.097669
vt 0.116663 0.050447
vt 0.120453 0.120453
vt 0.080294 0.080294
vt 0.097669 0.148216
vt 0.050447 0.116663
vt 0.080739 0.179890
vt 0.028269 0.158156
vt 0.070313 0.214258
vt 0.014612 0.203178
vt 0.066793 0.250000
vt 0.010000 0.250000
vt 0.070313 0.285742
vt 0.014612 0.296822
vt 0.080739 0.320110
vt 0.028269 0.341844
vt 0.097669 0.351784
vt 0.050447 0.383337
vt 0.120453 0.379547
vt 0.080294 0.419706
vt 0.148216 0.402331
vt 0.116663 0.449553
vt 0.179890 0.419261
vt 0.158156 0.471731
vt 0.214258 0.429687
vt 0.203178 0.485388
s 0
f 193/1/1 2/2/1 4/3/1 194/4/1
f 194/4/2 4/3/2 6/5/2 195/6/2
f 195/6/3 6/5/3 8/7/3 196/8/3
f 196/8/4 8/7/4 10/9/4 197/10/4
f 197/10/5 10/9/5 12/11/5 198/12/5
f 198/12/6 12/11/6 14/13/6 199/14/6
f 199/14/7 14/13/7 16/15/7 200/16/7
f 200/16/8 16/15/8 18/17/8 201/18/8
f 201/18/9 18/17/9 20/19/9 202/20/9
f 202/20/10 20/19/10 22/21/10 203/22/10
f 203/22/11 22/21/11 24/23/11 204/24/11
f 204/24/12 24/23/12 26/25/12 205/26/12
f 205/26/13 26/25/13 28/27/13 206/28/13
f 206/28/14 28/27/14 30/29/14 207/30/14
f 207/30/15 30/29/15 32/31/15 208/32/15
f 208/32/16 32/31/16 34/33/16 209/34/16
f 209/34/17 34/33/17 36/35/17 210/36/17
f 210/36/18 36/35/18 38/37/18 211/38/18
f 211/38/19 38/37/19 40/39/19 212/40/19
f 212/40/20 40/39/20 42/41/20 213/42/20
f 213/42/21 42/41/21 44/43/21 214/44/21
f 214/44/22 44/43/22 46/45/22 215/46/22
f 215/46/23 46/45/23 48/47/23 216/48/23
f 216/48/24 48/47/24 50/49/24 217/50/24
f 217/50/25 50/49/25 52/51/25 218/52/25
f 218/52/26 52/51/26 54/53/26 219/54/26
f 219/54/27 54/53/27 56/55/27 220/56/27
f 220/56/28 56/55/28 58/57/28 221/58/28
f 221/58/29 58/57/29 60/59/29 222/60/29
f 222/60/30 60/59/30 62/61/30 223/62/30
f 14/13/31 12/11/31 230/11/31 231/13/31
f 223/62/32 62/61/32 64/63/32 224/64/32
f 224/64/33 64/63/33 2/65/33 193/66/33
f 3/67/2 5/68/2 99/68/2 98/67/2
f 77/69/28 76/70/28 268/70/28 269/69/28
f 32/31/34 30/29/34 239/29/34 240/31/34
f 50/49/35 48/47/35 248/47/35 249/49/35
f 6/5/36 4/3/36 225/3/36 227/5/36
f 24/23/37 22/21/37 235/21/37 236/23/37
f 42/41/38 40/39/38 244/39/38 245/41/38
f 60/59/39 58/57/39 253/57/39 254/59/39
f 16/15/40 14/13/40 231/13/40 232/15/40
f 34/33/41 32/31/41 240/31/41 241/33/41
f 52/51/42 50/49/42 249/49/42 250/51/42
f 8/7/43 6/5/43 227/5/43 228/7/43
f 26/25/44 24/23/44 236/23/44 237/25/44
f 44/43/45 42/41/45 245/41/45 246/43/45
f 62/61/46 60/59/46 254/59/46 255/61/46
f 18/17/47 16/15/47 232/15/47 233/17/47
f 36/35/48 34/33/48 241/33/48 242/35/48
f 54/53/49 52/51/49 250/51/49 251/53/49
f 10/9/50 8/7/50 228/7/50 229/9/50
f 28/27/51 26/25/51 237/25/51 238/27/51
f 46/45/52 44/43/52 246/43/52 247/45/52
f 64/63/53 62/61/53 255/61/53 256/63/53
f 20/19/54 18/17/54 233/17/54 234/19/54
f 38/37/55 36/35/55 242/35/55 243/37/55
f 56/55/56 54/53/56 251/53/56 252/55/56
f 12/11/57 10/9/57 229/9/57 230/11/57
f 30/29/58 28/27/58 238/27/58 239/29/58
f 48/47/59 46/45/59 247/45/59 248/47/59
f 4/3/60 2/2/60 226/2/60 225/3/60
f 2/65/61 64/63/61 256/63/61 226/65/61
f 22/21/62 20/19/62 234/19/62 235/21/62
f 40/39/63 38/37/63 243/37/63 244/39/63
f 58/57/64 56/55/64 252/55/64 253/57/64
f 128/71/65 97/72/65 129/72/65 160/71/65
f 21/73/11 23/74/11 108/74/11 107/73/11
f 39/75/20 41/76/20 117/76/20 116/75/20
f 57/77/29 59/78/29 126/78/29 125/77/29
f 13/79/7 15/80/7 104/80/7 103/79/7
f 31/81/16 33/82/16 113/82/16 112/81/16
f 49/83/25 51/84/25 122/84/25 121/83/25
f 5/68/3 7/85/3 100/85/3 99/68/3
f 23/74/12 25/86/12 109/86/12 108/74/12
f 41/76/21 43/87/21 118/87/21 117/76/21
f 59/78/30 61/88/30 127/88/30 126/78/30
f 15/80/8 17/89/8 105/89/8 104/80/8
f 33/82/17 35/90/17 114/90/17 113/82/17
f 51/84/26 53/91/26 123/91/26 122/84/26
f 7/85/4 9/92/4 101/92/4 100/85/4
f 25/86/13 27/93/13 110/93/13 109/86/13
f 43/87/22 45/94/22 119/94/22 118/87/22
f 61/88/32 63/71/32 128/71/32 127/88/32
f 17/89/9 19/95/9 106/95/9 105/89/9
f 35/90/18 37/96/18 115/96/18 114/90/18
f 53/91/27 55/97/27 124/97/27 123/91/27
f 9/92/5 11/98/5 102/98/5 101/92/5
f 27/93/14 29/99/14 111/99/14 110/93/14
f 45/94/23 47/100/23 120/100/23 119/94/23
f 1/101/1 3/67/1 98/67/1 97/101/1
f 63/71/33 1/72/33 97/72/33 128/71/33
f 19/95/10 21/73/10 107/73/10 106/95/10
f 37/96/19 39/75/19 116/75/19 115/96/19
f 55/97/28 57/77/28 125/77/28 124/97/28
f 11/98/6 13/79/6 103/79/6 102/98/6
f 29/99/15 31/81/15 112/81/15 111/99/15
f 47/100/24 49/83/24 121/83/24 120/100/24
f 150/87/22 151/94/22 183/94/22 182/87/22
f 115/96/66 116/75/66 148/75/66 147/96/66
f 102/98/67 103/79/67 135/79/67 134/98/67
f 116/75/68 117/76/68 149/76/68 148/75/68
f 103/79/69 104/80/69 136/80/69 135/79/69
f 117/76/70 118/87/70 150/87/70 149/76/70
f 104/80/71 105/89/71 137/89/71 136/80/71
f 118/87/72 119/94/72 151/94/72 150/87/72
f 105/89/73 106/95/73 138/95/73 137/89/73
f 119/94/74 120/100/74 152/100/74 151/94/74
f 106/95/75 107/73/75 139/73/75 138/95/75
f 120/100/76 121/83/76 153/83/76 152/100/76
f 107/73/77 108/74/77 140/74/77 139/73/77
f 121/83/78 122/84/78 154/84/78 153/83/78
f 108/74/79 109/86/79 141/86/79 140/74/79
f 122/84/80 123/91/80 155/91/80 154/84/80
f 109/86/81 110/93/81 142/93/81 141/86/81
f 123/91/82 124/97/82 156/97/82 155/91/82
f 110/93/83 111/99/83 143/99/83 142/93/83
f 97/101/84 98/67/84 130/67/84 129/101/84
f 124/97/85 125/77/85 157/77/85 156/97/85
f 111/99/86 112/81/86 144/81/86 143/99/86
f 98/67/87 99/68/87 131/68/87 130/67/87
f 125/77/88 126/78/88 158/78/88 157/77/88
f 112/81/89 113/82/89 145/82/89 144/81/89
f 99/68/90 100/85/90 132/85/90 131/68/90
f 126/78/91 127/88/91 159/88/91 158/78/91
f 113/82/92 114/90/92 146/90/92 145/82/92
f 100/85/93 101/92/93 133/92/93 132/85/93
f 127/88/94 128/71/94 160/71/94 159/88/94
f 114/90/95 115/96/95 147/96/95 146/90/95
f 101/92/96 102/98/96 134/98/96 133/92/96
f 161/102/97 162/103/97 163/104/97 164/105/97 165/106/97 166/107/97 167/108/97 168/109/97 169/110/97 170/111/97 171/112/97 172/113/97 173/114/97 174/115/97 175/116/97 176/117/97 177/118/97 178/119/97 179/120/97 180/121/97 181/122/97 182/123/97 183/124/97 184/125/97 185/126/97 186/127/97 187/128/97 188/129/97 189/130/97 190/131/97 191/132/97 192/133/97
f 137/89/9 138/95/9 170/95/9 169/89/9
f 151/94/23 152/100/23 184/100/23 183/94/23
f 138/95/10 139/73/10 171/73/10 170/95/10
f 152/100/24 153/83/24 185/83/24 184/100/24
f 139/73/11 140/74/11 172/74/11 171/73/11
f 153/83/25 154/84/25 186/84/25 185/83/25
f 140/74/12 141/86/12 173/86/12 172/74/12
f 154/84/26 155/91/26 187/91/26 186/84/26
f 141/86/13 142/93/13 174/93/13 173/86/13
f 155/91/27 156/97/27 188/97/27 187/91/27
f 142/93/14 143/99/14 175/99/14 174/93/14
f 129/101/1 130/67/1 162/67/1 161/101/1
f 156/97/28 157/77/28 189/77/28 188/97/28
f 143/99/15 144/81/15 176/81/15 175/99/15
f 130/67/2 131/68/2 163/68/2 162/67/2
f 157/77/29 158/78/29 190/78/29 189/77/29
f 144/81/16 145/82/16 177/82/16 176/81/16
f 131/68/3 132/85/3 164/85/3 163/68/3
f 158/78/30 159/88/30 191/88/30 190/78/30
f 145/82/17 146/90/17 178/90/17 177/82/17
f 132/85/4 133/92/4 165/92/4 164/85/4
f 159/88/32 160/71/32 192/71/32 191/88/32
f 146/90/18 147/96/18 179/96/18 178/90/18
f 133/92/5 134/98/5 166/98/5 165/92/5
f 160/71/33 129/72/33 161/72/33 192/71/33
f 147/96/19 148/75/19 180/75/19 179/96/19
f 134/98/6 135/79/6 167/79/6 166/98/6
f 148/75/20 149/76/20 181/76/20 180/75/20
f 135/79/7 136/80/7 168/80/7 167/79/7
f 149/76/21 150/87/21 182/87/21 181/76/21
f 136/80/8 137/89/8 169/89/8 168/80/8
f 63/71/98 224/64/98 193/66/98 1/72/98
f 61/88/99 223/62/99 224/64/99 63/71/99
f 59/78/100 222/60/100 223/62/100 61/88/100
f 57/77/101 221/58/101 222/60/101 59/78/101
f 55/97/102 220/56/102 221/58/102 57/77/102
f 53/91/103 219/54/103 220/56/103 55/97/103
f 51/84/104 218/52/104 219/54/104 53/91/104
f 49/83/105 217/50/105 218/52/105 51/84/105
f 47/100/106 216/48/106 217/50/106 49/83/106
f 45/94/107 215/46/107 216/48/107 47/100/107
f 43/87/108 214/44/108 215/46/108 45/94/108
f 41/76/109 213/42/109 214/44/109 43/87/109
f 39/75/110 212/40/110 213/42/110 41/76/110
f 37/96/111 211/38/111 212/40/111 39/75/111
f 35/90/112 210/36/112 211/38/112 37/96/112
f 33/82/113 209/34/113 210/36/113 35/90/113
f 31/81/114 208/32/114 209/34/114 33/82/114
f 29/99/115 207/30/115 208/32/115 31/81/115
f 27/93/116 206/28/116 207/30/116 29/99/116
f 25/86/117 205/26/117 206/28/117 27/93/117
f 23/74/118 204/24/118 205/26/118 25/86/118
f 21/73/119 203/22/119 204/24/119 23/74/119
f 19/95/120 202/20/120 203/22/120 21/73/120
f 17/89/121 201/18/121 202/20/121 19/95/121
f 15/80/122 200/16/122 201/18/122 17/89/122
f 13/79/123 199/14/123 200/16/123 15/80/123
f 11/98/124 198/12/124 199/14/124 13/79/124
f 9/92/125 197/10/125 198/12/125 11/98/125
f 7/85/126 196/8/126 197/10/126 9/92/126
f 5/68/127 195/6/127 196/8/127 7/85/127
f 3/67/128 194/4/128 195/6/128 5/68/128
f 1/101/129 193/1/129 194/4/129 3/67/129
f 65/134/130 66/135/130 225/136/130 226/137/130
f 66/135/130 67/138/130 227/139/130 225/136/130
f 67/138/130 68/140/130 228/141/130 227/139/130
f 68/140/130 69/142/130 229/143/130 228/141/130
f 69/142/130 70/144/130 230/145/130 229/143/130
f 70/144/130 71/146/130 231/147/130 230/145/130
f 71/146/130 72/148/130 232/149/130 231/147/130
f 72/148/130 73/150/130 233/151/130 232/149/130
f 73/150/130 74/152/130 234/153/130 233/151/130
f 74/152/130 75/154/130 235/155/130 234/153/130
f 75/154/130 76/70/130 236/156/130 235/155/130
f 76/70/130 77/69/130 237/157/130 236/156/130
f 77/69/130 78/158/130 238/159/130 237/157/130
f 78/158/130 79/160/130 239/161/130 238/159/130
f 79/160/130 80/162/130 240/163/130 239/161/130
f 80/162/130 81/164/130 241/165/130 240/163/130
f 81/164/130 82/166/130 242/167/130 241/165/130
f 82/166/130 83/168/130 243/169/130 242/167/130
f 83/168/130 84/170/130 244/171/130 243/169/130
f 84/170/130 85/172/130 245/173/130 244/171/130
f 85/172/130 86/174/130 246/175/130 245/173/130
f 86/174/130 87/176/130 247/177/130 246/175/130
f 87/176/130 88/178/130 248/179/130 247/177/130
f 88/178/130 89/180/130 249/181/130 248/179/130
f 89/180/130 90/182/130 250/183/130 249/181/130
f 90/182/130 91/184/130 251/185/130 250/183/130
f 91/184/130 92/186/130 252/187/130 251/185/130
f 92/186/130 93/188/130 253/189/130 252/187/130
f 93/188/130 94/190/130 254/191/130 253/189/130
f 94/190/130 95/192/130 255/193/130 254/191/130
f 95/192/130 96/194/130 256/195/130 255/193/130
f 96/194/130 65/134/130 226/137/130 256/195/130
f 258/135/130 257/134/130 288/194/130 287/192/130 286/190/130 285/188/130 284/186/130 283/184/130 282/182/130 281/180/130 280/178/130 279/176/130 278/174/130 277/172/130 276/170/130 275/168/130 274/166/130 273/164/130 272/162/130 271/160/130 270/158/130 269/69/130 268/70/130 267/154/130 266/152/130 265/150/130 264/148/130 263/146/130 262/144/130 261/142/130 260/140/130 259/138/130
f 91/184/10 90/182/10 282/182/10 283/184/10
f 78/158/29 77/69/29 269/69/29 270/158/29
f 92/186/11 91/184/11 283/184/11 284/186/11
f 79/160/30 78/158/30 270/158/30 271/160/30
f 66/135/17 65/134/17 257/134/17 258/135/17
f 93/188/12 92/186/12 284/186/12 285/188/12
f 80/162/32 79/160/32 271/160/32 272/162/32
f 67/138/18 66/135/18 258/135/18 259/138/18
f 94/190/13 93/188/13 285/188/13 286/190/13
f 81/164/33 80/162/33 272/162/33 273/164/33
f 68/140/19 67/138/19 259/138/19 260/140/19
f 95/192/14 94/190/14 286/190/14 287/192/14
f 82/166/1 81/164/1 273/164/1 274/166/1
f 69/142/20 68/140/20 260/140/20 261/142/20
f 96/194/15 95/192/15 287/192/15 288/194/15
f 83/168/2 82/166/2 274/166/2 275/168/2
f 70/144/21 69/142/21 261/142/21 262/144/21
f 65/134/16 96/194/16 288/194/16 257/134/16
f 84/170/3 83/168/3 275/168/3 276/170/3
f 71/146/22 70/144/22 262/144/22 263/146/22
f 85/172/4 84/170/4 276/170/4 277/172/4
f 72/148/23 71/146/23 263/146/23 264/148/23
f 86/174/5 85/172/5 277/172/5 278/174/5
f 73/150/24 72/148/24 264/148/24 265/150/24
f 87/176/6 86/174/6 278/174/6 279/176/6
f 74/152/25 73/150/25 265/150/25 266/152/25
f 88/178/7 87/176/7 279/176/7 280/178/7
f 75/154/26 74/152/26 266/152/26 267/154/26
f 89/180/8 88/178/8 280/178/8 281/180/8
f 76/70/27 75/154/27 267/154/27 268/70/27
f 90/182/9 89/180/9 281/180/9 282/182/9
o Sphere
v 0.850453 0.152876 -0.194735
v 0.850816 -0.050804 -0.190993
v 0.772061 -0.581406 -0.161916
v 0.825289 -0.903556 -0.037261
v 0.825289 -0.903556 0.037261
v 0.850452 0.152876 0.194734
v 0.850816 -0.050804 0.190993
v 0.850816 -0.199877 0.179911
v 0.772061 -0.581406 0.161916
v 0.772061 -0.701826 0.137698
v 0.772061 -0.800652 0.108189
v 0.772061 -0.874086 0.074522
v 0.772061 -0.919307 0.037991
v 0.577732 0.157449 0.190993
v 0.583220 -0.050804 0.187323
v 0.598746 -0.199877 0.176454
v 0.545203 -0.581406 0.158805
v 0.579134 -0.701826 0.135052
v 0.620479 -0.800652 0.106110
v 0.667650 -0.874086 0.073090
v 0.718832 -0.919307 0.037261
v 0.315492 0.161846 0.179911
v 0.325907 -0.050804 0.176454
v 0.356362 -0.199877 0.166216
v 0.327064 -0.581406 0.149591
v 0.393622 -0.701826 0.127216
v 0.474723 -0.800652 0.099953
v 0.567251 -0.874086 0.068849
v 0.667650 -0.919307 0.035099
v 0.073811 0.165899 0.161916
v 0.088766 -0.050804 0.158805
v 0.132980 -0.199877 0.149591
v 0.126025 -0.581406 0.134628
v 0.222653 -0.701826 0.114492
v 0.340394 -0.800652 0.089956
v 0.474723 -0.874086 0.061963
v 0.620479 -0.919307 0.031588
v -0.138025 0.169451 0.137698
v -0.119090 -0.050804 0.135052
v -0.062815 -0.199877 0.127216
v -0.050186 -0.581406 0.114492
v 0.072797 -0.701826 0.097367
v 0.222653 -0.800652 0.076501
v 0.393622 -0.874086 0.052695
v 0.579134 -0.919307 0.026864
v 0.772061 -0.934576 0.000000
v -0.311874 0.172366 0.108189
v -0.289673 -0.050804 0.106110
v -0.223501 -0.199877 0.099953
v -0.194800 -0.581406 0.089956
v -0.050186 -0.701826 0.076501
v 0.126025 -0.800652 0.060106
v 0.327064 -0.874086 0.041402
v 0.545203 -0.919307 0.021107
v -0.441055 0.174532 0.074522
v -0.416428 -0.050804 0.073090
v -0.342901 -0.199877 0.068849
v -0.302257 -0.581406 0.061962
v -0.141571 -0.701826 0.052695
v 0.054225 -0.800652 0.041402
v 0.277607 -0.874086 0.028518
v 0.519990 -0.919307 0.014538
v -0.520604 0.175866 0.037991
v -0.494483 -0.050804 0.037261
v -0.416428 -0.199877 0.035099
v -0.368429 -0.581406 0.031588
v -0.197846 -0.701826 0.026864
v 0.010010 -0.800652 0.021107
v 0.247151 -0.874086 0.014538
v 0.504464 -0.919307 0.007412
v -0.547465 0.176317 -0.000000
v -0.520838 -0.050804 -0.000000
v -0.441254 -0.199877 0.000000
v -0.390772 -0.581406 -0.000000
v -0.216848 -0.701826 0.000000
v -0.004919 -0.800652 -0.000000
v 0.236867 -0.874086 0.000000
v 0.499222 -0.919307 0.000000
v -0.520604 0.175866 -0.037991
v -0.494482 -0.050804 -0.037261
v -0.416427 -0.199877 -0.035099
v -0.368428 -0.581406 -0.031588
v -0.197846 -0.701826 -0.026864
v 0.010010 -0.800652 -0.021107
v 0.247151 -0.874086 -0.014538
v 0.504464 -0.919307 -0.007412
v -0.441055 0.174532 -0.074522
v -0.416427 -0.050804 -0.073090
v -0.342901 -0.199877 -0.068849
v -0.302256 -0.581406 -0.061963
v -0.141571 -0.701826 -0.052695
v 0.054225 -0.800652 -0.041402
v 0.277607 -0.874086 -0.028518
v 0.519990 -0.919307 -0.014538
v -0.311873 0.172366 -0.108189
v -0.289673 -0.050804 -0.106110
v -0.223501 -0.199877 -0.099953
v -0.194799 -0.581406 -0.089956
v -0.050186 -0.701826 -0.076501
v 0.126026 -0.800652 -0.060106
v 0.327064 -0.874086 -0.041402
v 0.545203 -0.919307 -0.021107
v -0.138024 0.169451 -0.137698
v -0.119090 -0.050804 -0.135052
v -0.062815 -0.199877 -0.127216
v -0.050186 -0.581406 -0.114492
v 0.072797 -0.701826 -0.097367
v 0.222653 -0.800652 -0.076501
v 0.393622 -0.874086 -0.052695
v 0.579134 -0.919307 -0.026864
v 0.073812 0.165899 -0.161916
v 0.088766 -0.050804 -0.158805
v 0.132981 -0.199877 -0.149591
v 0.126026 -0.581406 -0.134628
v 0.222653 -0.701826 -0.114492
v 0.340394 -0.800652 -0.089956
v 0.474723 -0.874086 -0.061962
v 0.620479 -0.919307 -0.031588
v 0.315494 0.161846 -0.179911
v 0.325907 -0.050804 -0.176454
v 0.356362 -0.199877 -0.166216
v 0.327064 -0.581406 -0.149591
v 0.393622 -0.701826 -0.127216
v 0.474724 -0.800652 -0.099953
v 0.567251 -0.874086 -0.068849
v 0.667650 -0.919307 -0.035099
v 0.577733 0.157449 -0.190993
v 0.583220 -0.050804 -0.187323
v 0.598746 -0.199877 -0.176454
v 0.545204 -0.581406 -0.158805
v 0.579134 -0.701826 -0.135052
v 0.620480 -0.800652 -0.106110
v 0.667650 -0.874086 -0.073090
v 0.718832 -0.919307 -0.037261
v 0.850817 -0.199877 -0.179911
v 0.772061 -0.701826 -0.137698
v 0.772061 -0.800652 -0.108189
v 0.772061 -0.874086 -0.074522
v 0.772061 -0.919307 -0.037991
vn 0.2694 -0.8936 -0.3591
vn 0.2693 -0.8936 0.3591
vn -0.0139 -0.0182 0.9997
vn -0.0137 -0.0741 0.9972
vn -0.0137 -0.0443 0.9989
vn -0.0134 -0.1971 0.9803
vn -0.0131 -0.2861 0.9581
vn -0.0125 -0.4167 0.9089
vn -0.0107 -0.6284 0.7778
vn -0.0051 -0.9278 0.3729
vn -0.0403 -0.2963 0.9542
vn -0.0381 -0.4301 0.9020
vn -0.0323 -0.6429 0.7653
vn -0.0152 -0.9327 0.3604
vn -0.0424 -0.0185 0.9989
vn -0.0421 -0.0770 0.9961
vn -0.0422 -0.0403 0.9983
vn -0.0413 -0.2045 0.9780
vn -0.0740 -0.0834 0.9938
vn -0.0742 -0.0377 0.9965
vn -0.0724 -0.2207 0.9726
vn -0.0704 -0.3185 0.9453
vn -0.0660 -0.4585 0.8862
vn -0.0549 -0.6727 0.7379
vn -0.0250 -0.9417 0.3354
vn -0.0744 -0.0196 0.9970
vn -0.0979 -0.5059 0.8570
vn -0.0790 -0.7186 0.6909
vn -0.0340 -0.9540 0.2978
vn -0.1137 -0.0219 0.9933
vn -0.1130 -0.0947 0.9891
vn -0.1135 -0.0369 0.9929
vn -0.1100 -0.2491 0.9622
vn -0.1061 -0.3568 0.9281
vn -0.1662 -0.1142 0.9795
vn -0.1672 -0.0384 0.9852
vn -0.1597 -0.2970 0.9414
vn -0.1519 -0.4193 0.8951
vn -0.1365 -0.5784 0.8042
vn -0.1045 -0.7807 0.6161
vn -0.0421 -0.9679 0.2480
vn -0.1675 -0.0260 0.9855
vn -0.1840 -0.6836 0.7063
vn -0.1306 -0.8552 0.5015
vn -0.0487 -0.9812 0.1868
vn -0.2523 -0.0339 0.9671
vn -0.2492 -0.1501 0.9567
vn -0.2518 -0.0443 0.9668
vn -0.2332 -0.3800 0.8951
vn -0.2152 -0.5208 0.8261
vn -0.4164 -0.0607 0.9072
vn -0.3535 -0.5310 0.7701
vn -0.3054 -0.6812 0.6654
vn -0.2392 -0.8192 0.5212
vn -0.1540 -0.9293 0.3356
vn -0.0534 -0.9918 0.1163
vn -0.4171 -0.0512 0.9074
vn -0.4064 -0.2256 0.8854
vn -0.1686 -0.9784 0.1193
vn -0.0558 -0.9977 0.0395
vn -0.8130 -0.0954 0.5744
vn -0.7484 -0.3995 0.5294
vn -0.8117 -0.1074 0.5741
vn -0.5280 -0.7627 0.3735
vn -0.4049 -0.8683 0.2864
vn -0.2847 -0.9372 0.2013
vn -0.5280 -0.7627 -0.3735
vn -0.4049 -0.8683 -0.2864
vn -0.2847 -0.9372 -0.2013
vn -0.1686 -0.9784 -0.1193
vn -0.0558 -0.9977 -0.0395
vn -0.8130 -0.0954 -0.5744
vn -0.7484 -0.3995 -0.5294
vn -0.8117 -0.1074 -0.5741
vn -0.0534 -0.9918 -0.1163
vn -0.4171 -0.0512 -0.9074
vn -0.4064 -0.2256 -0.8854
vn -0.4164 -0.0607 -0.9072
vn -0.3535 -0.5310 -0.7701
vn -0.3054 -0.6812 -0.6654
vn -0.2392 -0.8192 -0.5212
vn -0.1540 -0.9293 -0.3356
vn -0.2332 -0.3800 -0.8951
vn -0.2152 -0.5208 -0.8261
vn -0.1840 -0.6836 -0.7063
vn -0.1306 -0.8552 -0.5015
vn -0.0487 -0.9812 -0.1868
vn -0.2523 -0.0339 -0.9671
vn -0.2492 -0.1501 -0.9567
vn -0.2518 -0.0443 -0.9668
vn -0.0421 -0.9679 -0.2480
vn -0.1675 -0.0260 -0.9855
vn -0.1662 -0.1142 -0.9795
vn -0.1672 -0.0384 -0.9852
vn -0.1597 -0.2970 -0.9414
vn -0.1519 -0.4193 -0.8951
vn -0.1365 -0.5784 -0.8042
vn -0.1045 -0.7807 -0.6161
vn -0.1061 -0.3568 -0.9281
vn -0.0979 -0.5059 -0.8570
vn -0.0790 -0.7186 -0.6909
vn -0.0340 -0.9540 -0.2978
vn -0.1137 -0.0219 -0.9933
vn -0.1130 -0.0947 -0.9891
vn -0.1135 -0.0369 -0.9929
vn -0.1100 -0.2491 -0.9622
vn -0.0744 -0.0196 -0.9970
vn -0.0740 -0.0834 -0.9938
vn -0.0742 -0.0377 -0.9965
vn -0.0724 -0.2207 -0.9726
vn -0.0704 -0.3185 -0.9453
vn -0.0660 -0.4585 -0.8862
vn -0.0549 -0.6727 -0.7379
vn -0.0250 -0.9417 -0.3354
vn -0.0403 -0.2963 -0.9542
vn -0.0381 -0.4301 -0.9020
vn -0.0323 -0.6429 -0.7653
vn -0.0152 -0.9327 -0.3604
vn -0.0424 -0.0185 -0.9989
vn -0.0421 -0.0770 -0.9961
vn -0.0422 -0.0403 -0.9983
vn -0.0413 -0.2045 -0.9780
vn -0.0137 -0.0741 -0.9972
vn -0.0137 -0.0443 -0.9989
vn -0.0134 -0.1971 -0.9803
vn -0.0131 -0.2861 -0.9581
vn -0.0125 -0.4167 -0.9089
vn -0.0107 -0.6284 -0.7778
vn -0.0051 -0.9278 -0.3729
vn -0.0139 -0.0182 -0.9997
vn 0.9974 -0.0722 -0.0000
vn 0.0168 0.9999 -0.0000
vt 0.734375 0.000000
vt 0.750000 0.062500
vt 0.718750 0.062500
vt 0.265625 0.000000
vt 0.281250 0.062500
vt 0.250000 0.062500
vt 0.250000 0.437500
vt 0.250000 0.500000
vt 0.218750 0.500000
vt 0.218750 0.437500
vt 0.250000 0.375000
vt 0.218750 0.375000
vt 0.250000 0.312500
vt 0.218750 0.312500
vt 0.250000 0.250000
vt 0.218750 0.250000
vt 0.250000 0.187500
vt 0.218750 0.187500
vt 0.250000 0.125000
vt 0.218750 0.125000
vt 0.218750 0.062500
vt 0.234375 0.000000
vt 0.187500 0.250000
vt 0.187500 0.187500
vt 0.187500 0.125000
vt 0.187500 0.062500
vt 0.203125 0.000000
vt 0.187500 0.500000
vt 0.187500 0.437500
vt 0.187500 0.375000
vt 0.187500 0.312500
vt 0.156250 0.437500
vt 0.156250 0.375000
vt 0.156250 0.312500
vt 0.156250 0.250000
vt 0.156250 0.187500
vt 0.156250 0.125000
vt 0.156250 0.062500
vt 0.171875 0.000000
vt 0.156250 0.500000
vt 0.125000 0.187500
vt 0.125000 0.125000
vt 0.125000 0.062500
vt 0.140625 0.000000
vt 0.125000 0.500000
vt 0.125000 0.437500
vt 0.125000 0.375000
vt 0.125000 0.312500
vt 0.125000 0.250000
vt 0.093750 0.437500
vt 0.093750 0.375000
vt 0.093750 0.312500
vt 0.093750 0.250000
vt 0.093750 0.187500
vt 0.093750 0.125000
vt 0.093750 0.062500
vt 0.109375 0.000000
vt 0.093750 0.500000
vt 0.062500 0.187500
vt 0.062500 0.125000
vt 0.062500 0.062500
vt 0.078125 0.000000
vt 0.062500 0.500000
vt 0.062500 0.437500
vt 0.062500 0.375000
vt 0.062500 0.312500
vt 0.062500 0.250000
vt 0.031250 0.375000
vt 0.031250 0.312500
vt 0.031250 0.250000
vt 0.031250 0.187500
vt 0.031250 0.125000
vt 0.031250 0.062500
vt 0.046875 0.000000
vt 0.031250 0.500000
vt 0.031250 0.437500
vt 0.000000 0.125000
vt 0.000000 0.062500
vt 0.015625 0.000000
vt 0.000000 0.500000
vt 0.000000 0.437500
vt 0.000000 0.375000
vt 0.000000 0.312500
vt 0.000000 0.250000
vt 0.000000 0.187500
vt 1.000000 0.250000
vt 1.000000 0.312500
vt 0.968750 0.312500
vt 0.968750 0.250000
vt 1.000000 0.187500
vt 0.968750 0.187500
vt 1.000000 0.125000
vt 0.968750 0.125000
vt 1.000000 0.062500
vt 0.968750 0.062500
vt 0.984375 0.000000
vt 1.000000 0.437500
vt 1.000000 0.500000
vt 0.968750 0.500000
vt 0.968750 0.437500
vt 1.000000 0.375000
vt 0.968750 0.375000
vt 0.953125 0.000000
vt 0.937500 0.062500
vt 0.937500 0.500000
vt 0.937500 0.437500
vt 0.937500 0.375000
vt 0.937500 0.312500
vt 0.937500 0.250000
vt 0.937500 0.187500
vt 0.937500 0.125000
vt 0.906250 0.312500
vt 0.906250 0.250000
vt 0.906250 0.187500
vt 0.906250 0.125000
vt 0.906250 0.062500
vt 0.921875 0.000000
vt 0.906250 0.500000
vt 0.906250 0.437500
vt 0.906250 0.375000
vt 0.890625 0.000000
vt 0.875000 0.062500
vt 0.875000 0.500000
vt 0.875000 0.437500
vt 0.875000 0.375000
vt 0.875000 0.312500
vt 0.875000 0.250000
vt 0.875000 0.187500
vt 0.875000 0.125000
vt 0.843750 0.250000
vt 0.843750 0.187500
vt 0.843750 0.125000
vt 0.843750 0.062500
vt 0.859375 0.000000
vt 0.843750 0.500000
vt 0.843750 0.437500
vt 0.843750 0.375000
vt 0.843750 0.312500
vt 0.812500 0.500000
vt 0.812500 0.437500
vt 0.812500 0.375000
vt 0.812500 0.312500
vt 0.812500 0.250000
vt 0.812500 0.187500
vt 0.812500 0.125000
vt 0.812500 0.062500
vt 0.828125 0.000000
vt 0.781250 0.250000
vt 0.781250 0.187500
vt 0.781250 0.125000
vt 0.781250 0.062500
vt 0.796875 0.000000
vt 0.781250 0.500000
vt 0.781250 0.437500
vt 0.781250 0.375000
vt 0.781250 0.312500
vt 0.750000 0.437500
vt 0.750000 0.375000
vt 0.750000 0.312500
vt 0.750000 0.250000
vt 0.750000 0.187500
vt 0.750000 0.125000
vt 0.765625 0.000000
vt 0.750000 0.500000
s 0
f 334/196/131 427/197/131 292/198/131
f 334/199/132 293/200/132 301/201/132
f 295/202/133 294/203/133 302/204/133 303/205/133
f 296/206/134 295/202/134 303/205/134 304/207/134
f 297/208/135 296/206/135 304/207/135 305/209/135
f 298/210/136 297/208/136 305/209/136 306/211/136
f 299/212/137 298/210/137 306/211/137 307/213/137
f 300/214/138 299/212/138 307/213/138 308/215/138
f 301/201/139 300/214/139 308/215/139 309/216/139
f 334/217/140 301/201/140 309/216/140
f 307/213/141 306/211/141 314/218/141 315/219/141
f 308/215/142 307/213/142 315/219/142 316/220/142
f 309/216/143 308/215/143 316/220/143 317/221/143
f 334/222/144 309/216/144 317/221/144
f 303/205/145 302/204/145 310/223/145 311/224/145
f 304/207/146 303/205/146 311/224/146 312/225/146
f 305/209/147 304/207/147 312/225/147 313/226/147
f 306/211/148 305/209/148 313/226/148 314/218/148
f 312/225/149 311/224/149 319/227/149 320/228/149
f 313/226/150 312/225/150 320/228/150 321/229/150
f 314/218/151 313/226/151 321/229/151 322/230/151
f 315/219/152 314/218/152 322/230/152 323/231/152
f 316/220/153 315/219/153 323/231/153 324/232/153
f 317/221/154 316/220/154 324/232/154 325/233/154
f 334/234/155 317/221/155 325/233/155
f 311/224/156 310/223/156 318/235/156 319/227/156
f 324/232/157 323/231/157 331/236/157 332/237/157
f 325/233/158 324/232/158 332/237/158 333/238/158
f 334/239/159 325/233/159 333/238/159
f 319/227/160 318/235/160 326/240/160 327/241/160
f 320/228/161 319/227/161 327/241/161 328/242/161
f 321/229/162 320/228/162 328/242/162 329/243/162
f 322/230/163 321/229/163 329/243/163 330/244/163
f 323/231/164 322/230/164 330/244/164 331/236/164
f 328/242/165 327/241/165 336/245/165 337/246/165
f 329/243/166 328/242/166 337/246/166 338/247/166
f 330/244/167 329/243/167 338/247/167 339/248/167
f 331/236/168 330/244/168 339/248/168 340/249/168
f 332/237/169 331/236/169 340/249/169 341/250/169
f 333/238/170 332/237/170 341/250/170 342/251/170
f 334/252/171 333/238/171 342/251/171
f 327/241/172 326/240/172 335/253/172 336/245/172
f 341/250/173 340/249/173 348/254/173 349/255/173
f 342/251/174 341/250/174 349/255/174 350/256/174
f 334/257/175 342/251/175 350/256/175
f 336/245/176 335/253/176 343/258/176 344/259/176
f 337/246/177 336/245/177 344/259/177 345/260/177
f 338/247/178 337/246/178 345/260/178 346/261/178
f 339/248/179 338/247/179 346/261/179 347/262/179
f 340/249/180 339/248/180 347/262/180 348/254/180
f 346/261/181 345/260/181 353/263/181 354/264/181
f 347/262/182 346/261/182 354/264/182 355/265/182
f 348/254/183 347/262/183 355/265/183 356/266/183
f 349/255/184 348/254/184 356/266/184 357/267/184
f 350/256/185 349/255/185 357/267/185 358/268/185
f 334/269/186 350/256/186 358/268/186
f 344/259/187 343/258/187 351/270/187 352/271/187
f 345/260/188 344/259/188 352/271/188 353/263/188
f 358/268/189 357/267/189 365/272/189 366/273/189
f 334/274/190 358/268/190 366/273/190
f 352/271/191 351/270/191 359/275/191 360/276/191
f 353/263/192 352/271/192 360/276/192 361/277/192
f 354/264/193 353/263/193 361/277/193 362/278/193
f 355/265/194 354/264/194 362/278/194 363/279/194
f 356/266/195 355/265/195 363/279/195 364/280/195
f 357/267/196 356/266/196 364/280/196 365/272/196
f 363/281/197 362/282/197 370/283/197 371/284/197
f 364/285/198 363/281/198 371/284/198 372/286/198
f 365/287/199 364/285/199 372/286/199 373/288/199
f 366/289/200 365/287/200 373/288/200 374/290/200
f 334/291/201 366/289/201 374/290/201
f 360/292/202 359/293/202 367/294/202 368/295/202
f 361/296/203 360/292/203 368/295/203 369/297/203
f 362/282/204 361/296/204 369/297/204 370/283/204
f 334/298/205 374/290/205 382/299/205
f 368/295/206 367/294/206 375/300/206 376/301/206
f 369/297/207 368/295/207 376/301/207 377/302/207
f 370/283/208 369/297/208 377/302/208 378/303/208
f 371/284/209 370/283/209 378/303/209 379/304/209
f 372/286/210 371/284/210 379/304/210 380/305/210
f 373/288/211 372/286/211 380/305/211 381/306/211
f 374/290/212 373/288/212 381/306/212 382/299/212
f 379/304/213 378/303/213 386/307/213 387/308/213
f 380/305/214 379/304/214 387/308/214 388/309/214
f 381/306/215 380/305/215 388/309/215 389/310/215
f 382/299/216 381/306/216 389/310/216 390/311/216
f 334/312/217 382/299/217 390/311/217
f 376/301/218 375/300/218 383/313/218 384/314/218
f 377/302/219 376/301/219 384/314/219 385/315/219
f 378/303/220 377/302/220 385/315/220 386/307/220
f 334/316/221 390/311/221 398/317/221
f 384/314/222 383/313/222 391/318/222 392/319/222
f 385/315/223 384/314/223 392/319/223 393/320/223
f 386/307/224 385/315/224 393/320/224 394/321/224
f 387/308/225 386/307/225 394/321/225 395/322/225
f 388/309/226 387/308/226 395/322/226 396/323/226
f 389/310/227 388/309/227 396/323/227 397/324/227
f 390/311/228 389/310/228 397/324/228 398/317/228
f 396/323/229 395/322/229 403/325/229 404/326/229
f 397/324/230 396/323/230 404/326/230 405/327/230
f 398/317/231 397/324/231 405/327/231 406/328/231
f 334/329/232 398/317/232 406/328/232
f 392/319/233 391/318/233 399/330/233 400/331/233
f 393/320/234 392/319/234 400/331/234 401/332/234
f 394/321/235 393/320/235 401/332/235 402/333/235
f 395/322/236 394/321/236 402/333/236 403/325/236
f 400/331/237 399/330/237 407/334/237 408/335/237
f 401/332/238 400/331/238 408/335/238 409/336/238
f 402/333/239 401/332/239 409/336/239 410/337/239
f 403/325/240 402/333/240 410/337/240 411/338/240
f 404/326/241 403/325/241 411/338/241 412/339/241
f 405/327/242 404/326/242 412/339/242 413/340/242
f 406/328/243 405/327/243 413/340/243 414/341/243
f 334/342/244 406/328/244 414/341/244
f 412/339/245 411/338/245 419/343/245 420/344/245
f 413/340/246 412/339/246 420/344/246 421/345/246
f 414/341/247 413/340/247 421/345/247 422/346/247
f 334/347/248 414/341/248 422/346/248
f 408/335/249 407/334/249 415/348/249 416/349/249
f 409/336/250 408/335/250 416/349/250 417/350/250
f 410/337/251 409/336/251 417/350/251 418/351/251
f 411/338/252 410/337/252 418/351/252 419/343/252
f 417/350/253 416/349/253 290/352/253 423/353/253
f 418/351/254 417/350/254 423/353/254 291/354/254
f 419/343/255 418/351/255 291/354/255 424/355/255
f 420/344/256 419/343/256 424/355/256 425/356/256
f 421/345/257 420/344/257 425/356/257 426/357/257
f 422/346/258 421/345/258 426/357/258 427/197/258
f 334/358/259 422/346/259 427/197/259
f 416/349/260 415/348/260 289/359/260 290/352/260
f 289/359/261 294/203/261 295/202/261 296/206/261 297/208/261 298/210/261 299/212/261 300/214/261 293/200/261 301/201/261 334/199/261 427/197/261 292/198/261 426/357/261 425/356/261 424/355/261 291/354/261 423/353/261 290/352/261
f 302/204/262 294/203/262 289/359/262 415/348/262 407/334/262 399/330/262 391/318/262 383/313/262 375/300/262 367/294/262 359/275/262 351/270/262 343/258/262 335/253/262 326/240/262 318/235/262 310/223/262
